<?xml version="1.0" encoding="utf-8"?>
<!-- Generator: Adobe Illustrator 27.2.0, SVG Export Plug-In . SVG Version: 6.00 Build 0)  -->
<svg version="1.1" id="Layer_1" xmlns="http://www.w3.org/2000/svg" xmlns:xlink="http://www.w3.org/1999/xlink" x="0px" y="0px"
	 viewBox="0 0 514.7 369.9" style="enable-background:new 0 0 514.7 369.9;" xml:space="preserve">
<style type="text/css">
	.st0{fill:#FFFFFF;}
	.st1{fill:#7F52FF;}
</style>
<g>
	<g>
		<path class="st0" d="M129.9,356.7c-24.4,0-44.3-19.9-44.3-44.3V57.5c0-24.4,19.9-44.3,44.3-44.3h254.9c24.4,0,44.3,19.9,44.3,44.3
			v254.9c0,24.4-19.9,44.3-44.3,44.3H129.9z"/>
		<path class="st1" d="M442.6,57.2h-0.4C442.1,25.6,416.5,0,384.8,0H129.9C98.2,0,72.6,25.6,72.4,57.2h-0.4
			C32.3,57.2,0,89.5,0,129.3v111.2c0,39.8,32.3,72.1,72.1,72.1h0.4c0.1,31.6,25.8,57.2,57.5,57.2h254.9c31.7,0,57.3-25.6,57.5-57.2
			h0.4c39.8,0,72.1-32.3,72.1-72.1V129.3C514.7,89.5,482.4,57.2,442.6,57.2z M416,312.4c0,8.1-3.1,15.5-8.2,21c0,0,0,0,0,0
			c-0.3,0.4-0.7,0.7-1,1.1c0,0,0,0,0,0c-0.3,0.3-0.7,0.7-1,1c0,0-0.1,0.1-0.1,0.1c-0.3,0.3-0.7,0.6-1,0.9c0,0-0.1,0.1-0.1,0.1
			c-0.3,0.3-0.7,0.5-1,0.8c-0.1,0-0.1,0.1-0.2,0.1c-0.3,0.3-0.7,0.5-1,0.7c-0.1,0.1-0.2,0.1-0.2,0.2c-0.3,0.2-0.7,0.4-1,0.6
			c-0.1,0.1-0.2,0.1-0.3,0.2c-0.3,0.2-0.7,0.4-1,0.6c-0.1,0.1-0.2,0.1-0.4,0.2c-0.3,0.2-0.6,0.3-1,0.5c-0.1,0.1-0.3,0.1-0.4,0.2
			c-0.3,0.1-0.6,0.3-0.9,0.4c-0.2,0.1-0.3,0.1-0.5,0.2c-0.3,0.1-0.6,0.2-0.9,0.4c-0.2,0.1-0.4,0.1-0.6,0.2c-0.3,0.1-0.6,0.2-0.9,0.3
			c-0.2,0.1-0.4,0.1-0.6,0.2c-0.3,0.1-0.6,0.2-0.8,0.2c-0.2,0.1-0.5,0.1-0.7,0.2c-0.3,0.1-0.5,0.1-0.8,0.2c-0.3,0.1-0.5,0.1-0.8,0.1
			c-0.2,0-0.5,0.1-0.7,0.1c-0.3,0-0.6,0.1-0.9,0.1c-0.2,0-0.5,0.1-0.7,0.1c-0.3,0-0.7,0.1-1,0.1c-0.2,0-0.4,0-0.6,0
			c-0.5,0-1.1,0-1.6,0H129.9c-0.5,0-1.1,0-1.6,0c-0.2,0-0.4,0-0.6,0c-0.3,0-0.7,0-1-0.1c-0.2,0-0.4-0.1-0.7-0.1
			c-0.3,0-0.6-0.1-0.9-0.1c-0.2,0-0.5-0.1-0.7-0.1c-0.3,0-0.5-0.1-0.8-0.1c-0.3-0.1-0.5-0.1-0.8-0.2c-0.2-0.1-0.5-0.1-0.7-0.2
			c-0.3-0.1-0.6-0.2-0.9-0.2c-0.2-0.1-0.4-0.1-0.6-0.2c-0.3-0.1-0.6-0.2-0.9-0.3c-0.2-0.1-0.4-0.1-0.5-0.2c-0.3-0.1-0.6-0.2-0.9-0.4
			c-0.2-0.1-0.3-0.1-0.5-0.2c-0.3-0.1-0.6-0.3-0.9-0.4c-0.1-0.1-0.3-0.1-0.4-0.2c-0.3-0.2-0.6-0.3-1-0.5c-0.1-0.1-0.2-0.1-0.4-0.2
			c-0.3-0.2-0.7-0.4-1-0.6c-0.1-0.1-0.2-0.1-0.3-0.2c-0.3-0.2-0.7-0.4-1-0.6c-0.1-0.1-0.2-0.1-0.2-0.2c-0.4-0.2-0.7-0.5-1-0.7
			c-0.1,0-0.1-0.1-0.2-0.1c-0.3-0.3-0.7-0.5-1-0.8c0,0-0.1-0.1-0.1-0.1c-0.4-0.3-0.7-0.6-1-0.9c0,0-0.1-0.1-0.1-0.1
			c-0.3-0.3-0.7-0.6-1-1c0,0,0,0-0.1-0.1c-0.3-0.3-0.7-0.7-1-1.1c0,0,0,0,0,0c-5.1-5.5-8.2-12.9-8.2-21V57.5c0-8.1,3.1-15.5,8.2-21
			c0,0,0,0,0,0c0.3-0.4,0.7-0.7,1-1c0,0,0,0,0.1-0.1c0.3-0.3,0.7-0.7,1-1c0,0,0.1-0.1,0.1-0.1c0.3-0.3,0.7-0.6,1-0.9
			c0,0,0.1-0.1,0.1-0.1c0.3-0.3,0.7-0.5,1-0.8c0.1,0,0.1-0.1,0.2-0.1c0.3-0.2,0.7-0.5,1-0.7c0.1-0.1,0.2-0.1,0.3-0.2
			c0.3-0.2,0.7-0.4,1-0.6c0.1-0.1,0.2-0.1,0.3-0.2c0.3-0.2,0.6-0.4,1-0.6c0.1-0.1,0.2-0.1,0.4-0.2c0.3-0.2,0.6-0.3,1-0.5
			c0.1-0.1,0.3-0.1,0.5-0.2c0.3-0.1,0.6-0.3,0.9-0.4c0.2-0.1,0.3-0.1,0.5-0.2c0.3-0.1,0.6-0.2,0.9-0.4c0.2-0.1,0.4-0.1,0.6-0.2
			c0.3-0.1,0.6-0.2,0.9-0.3c0.2-0.1,0.4-0.1,0.6-0.2c0.3-0.1,0.6-0.2,0.9-0.2c0.2-0.1,0.5-0.1,0.7-0.2c0.3-0.1,0.5-0.1,0.8-0.2
			c0.3-0.1,0.5-0.1,0.8-0.1c0.2,0,0.5-0.1,0.7-0.1c0.3,0,0.6-0.1,0.9-0.1c0.2,0,0.5-0.1,0.7-0.1c0.3,0,0.7-0.1,1-0.1
			c0.2,0,0.4,0,0.6,0c0.5,0,1.1,0,1.6,0h254.9v0c0.5,0,1.1,0,1.6,0c0.2,0,0.3,0,0.5,0c0.4,0,0.7,0,1.1,0.1c0.2,0,0.5,0.1,0.7,0.1
			c0.3,0,0.6,0.1,0.9,0.1c0.2,0,0.5,0.1,0.7,0.1c0.3,0,0.5,0.1,0.8,0.1c0.3,0.1,0.5,0.1,0.8,0.2c0.2,0.1,0.5,0.1,0.7,0.2
			c0.3,0.1,0.6,0.2,0.8,0.2c0.2,0.1,0.4,0.1,0.6,0.2c0.3,0.1,0.6,0.2,0.9,0.3c0.2,0.1,0.4,0.1,0.6,0.2c0.3,0.1,0.6,0.2,0.9,0.3
			c0.2,0.1,0.4,0.1,0.5,0.2c0.3,0.1,0.6,0.3,0.9,0.4c0.2,0.1,0.3,0.1,0.5,0.2c0.3,0.2,0.6,0.3,1,0.5c0.1,0.1,0.3,0.1,0.4,0.2
			c0.3,0.2,0.7,0.4,1,0.6c0.1,0.1,0.2,0.1,0.3,0.2c0.3,0.2,0.7,0.4,1,0.6c0.1,0.1,0.2,0.1,0.3,0.2c0.3,0.2,0.7,0.5,1,0.7
			c0.1,0,0.1,0.1,0.2,0.1c0.4,0.3,0.7,0.5,1,0.8c0,0,0.1,0.1,0.1,0.1c0.3,0.3,0.7,0.6,1,0.9c0,0,0.1,0.1,0.1,0.1
			c0.3,0.3,0.7,0.6,1,1c0,0,0,0,0.1,0.1c0.3,0.3,0.7,0.7,1,1.1c0,0,0,0,0,0c5.1,5.5,8.2,12.9,8.2,21V312.4z"/>
	</g>
	<g>
		<path class="st1" d="M189.1,273.4h-45.2c-10.8,0-19.6,8.8-19.6,19.6c0,10.8,8.8,19.6,19.6,19.6h45.2c10.8,0,19.6-8.8,19.6-19.6
			C208.7,282.1,199.9,273.4,189.1,273.4z"/>
		<path class="st1" d="M370.9,273.4h-45.2c-10.8,0-19.6,8.8-19.6,19.6c0,10.8,8.8,19.6,19.6,19.6h45.2c10.8,0,19.6-8.8,19.6-19.6
			C390.5,282.1,381.7,273.4,370.9,273.4z"/>
	</g>
</g>
</svg>
